<svg viewBox="0 0 1451 1024" xmlns="http://www.w3.org/2000/svg" width="68" height="26">
  <defs>
    <style></style>
  </defs>
  <path
      d="M664.8 681.5L0 97.9C0 4 71 0 71 0h1290.6s71 4 71 97.9L771.4 681.5s-6.8 3.7-17.7 7.2a89.7 89.7 0 0 1-35.5 6.1 89.7 89.7 0 0 1-35.5-6.1c-11-3.6-17.8-7.2-17.8-7.2zM718 811.6c-24.3-.6-59.2-9.4-99-43.9C543 701.7 0 212.1 0 212.1v730.7s0 81.2 83.7 81.2H1349c83.8 0 83.8-81.2 83.8-81.2V212.1S893 701.8 817 767.7c-39.8 34.5-74.7 43.3-99 43.9z"
      fill="#fffaa2"></path>
</svg>